<svg width="39" height="16" viewBox="0 0 39 16" fill="none" xmlns="http://www.w3.org/2000/svg">
<path d="M3.49805 14V3H5.49805V4H6.49805V6H7.49805V8H8.49805V3H10.498V14H8.49805V13H7.49805V11H6.49805V9H5.49805V14H3.49805ZM11.502 14V3H17.502V5H13.502V7H17.502V9H13.502V12H17.502V14H11.502ZM18.498 14V11H19.498V9H20.498V8H19.498V6H18.498V3H20.498V5H21.498V7H22.498V5H23.498V3H25.498V6H24.498V8H23.498V9H24.498V11H25.498V14H23.498V12H22.498V10H21.498V12H20.498V14H18.498ZM26.502 5V3H34.502V5H31.502V14H29.502V5H26.502Z" fill="black"/>
</svg>
