<svg width="39" height="16" viewBox="0 0 39 16" fill="none" xmlns="http://www.w3.org/2000/svg">
<path d="M0.498047 13V4H1.49805V3H6.49805V4H7.49805V6H5.49805V5H2.49805V12H5.49805V11H7.49805V13H6.49805V14H1.49805V13H0.498047ZM8.50195 14V3H10.502V12H14.502V14H8.50195ZM15.498 13V4H16.498V3H21.498V4H22.498V13H21.498V14H16.498V13H15.498ZM17.498 12H20.498V5H17.498V12ZM23.502 13V11H25.502V12H28.502V10H26.502V9H24.502V8H23.502V4H24.502V3H29.502V4H30.502V6H28.502V5H25.502V7H27.502V8H29.502V9H30.502V13H29.502V14H24.502V13H23.502ZM31.5059 14V3H37.5059V5H33.5059V7H37.5059V9H33.5059V12H37.5059V14H31.5059Z" fill="black"/>
</svg>
