<svg width="156" height="125" viewBox="0 0 156 125" fill="none" xmlns="http://www.w3.org/2000/svg">
<path d="M0 50V5H5V-1.19209e-06H30V5H35V15H25V10H10V45H25V30H15V20H35V50H30V55H5V50H0ZM40.0195 50V5H45.0195V-1.19209e-06H70.0195V5H75.0195V50H70.0195V55H45.0195V50H40.0195ZM50.0195 45H65.0195V10H50.0195V45ZM80.0391 50V5H85.0391V-1.19209e-06H110.039V5H115.039V50H110.039V55H85.0391V50H80.0391ZM90.0391 45H105.039V10H90.0391V45ZM120.059 55V-1.19209e-06H150.059V5H155.059V50H150.059V55H120.059ZM145.059 45V10H130.059V45H145.059ZM0 125V70H30V75H35V95H30V100H35V120H30V125H0ZM10 115H25V100H10V115ZM10 90H25V80H10V90ZM40.0195 85V70H50.0195V80H55.0195V90H65.0195V80H70.0195V70H80.0195V85H75.0195V95H70.0195V105H65.0195V125H55.0195V105H50.0195V95H45.0195V85H40.0195ZM85.0195 125V70H115.02V80H95.0195V90H115.02V100H95.0195V115H115.02V125H85.0195Z" fill="white"/>
<path d="M0 50H-4V54H0V50ZM0 5V0.999998H-4V5H0ZM5 5V9H9V5H5ZM5 -1.19209e-06V-4H1V-1.19209e-06H5ZM30 -1.19209e-06H34V-4H30V-1.19209e-06ZM30 5H26V9H30V5ZM35 5H39V0.999998H35V5ZM35 15V19H39V15H35ZM25 15H21V19H25V15ZM25 10H29V6H25V10ZM10 10V6H6V10H10ZM10 45H6V49H10V45ZM25 45V49H29V45H25ZM25 30H29V26H25V30ZM15 30H11V34H15V30ZM15 20V16H11V20H15ZM35 20H39V16H35V20ZM35 50V54H39V50H35ZM30 50V46H26V50H30ZM30 55V59H34V55H30ZM5 55H1V59H5V55ZM5 50H9V46H5V50ZM4 50V5H-4V50H4ZM0 9H5V0.999998H0V9ZM9 5V-1.19209e-06H1V5H9ZM5 4H30V-4H5V4ZM26 -1.19209e-06V5H34V-1.19209e-06H26ZM30 9H35V0.999998H30V9ZM31 5V15H39V5H31ZM35 11H25V19H35V11ZM29 15V10H21V15H29ZM25 6H10V14H25V6ZM6 10V45H14V10H6ZM10 49H25V41H10V49ZM29 45V30H21V45H29ZM25 26H15V34H25V26ZM19 30V20H11V30H19ZM15 24H35V16H15V24ZM31 20V50H39V20H31ZM35 46H30V54H35V46ZM26 50V55H34V50H26ZM30 51H5V59H30V51ZM9 55V50H1V55H9ZM5 46H0V54H5V46ZM40.0195 50H36.0195V54H40.0195V50ZM40.0195 5V0.999998H36.0195V5H40.0195ZM45.0195 5V9H49.0195V5H45.0195ZM45.0195 -1.19209e-06V-4H41.0195V-1.19209e-06H45.0195ZM70.0195 -1.19209e-06H74.0195V-4H70.0195V-1.19209e-06ZM70.0195 5H66.0195V9H70.0195V5ZM75.0195 5H79.0195V0.999998H75.0195V5ZM75.0195 50V54H79.0195V50H75.0195ZM70.0195 50V46H66.0195V50H70.0195ZM70.0195 55V59H74.0195V55H70.0195ZM45.0195 55H41.0195V59H45.0195V55ZM45.0195 50H49.0195V46H45.0195V50ZM50.0195 45H46.0195V49H50.0195V45ZM65.0195 45V49H69.0195V45H65.0195ZM65.0195 10H69.0195V6H65.0195V10ZM50.0195 10V6H46.0195V10H50.0195ZM44.0195 50V5H36.0195V50H44.0195ZM40.0195 9H45.0195V0.999998H40.0195V9ZM49.0195 5V-1.19209e-06H41.0195V5H49.0195ZM45.0195 4H70.0195V-4H45.0195V4ZM66.0195 -1.19209e-06V5H74.0195V-1.19209e-06H66.0195ZM70.0195 9H75.0195V0.999998H70.0195V9ZM71.0195 5V50H79.0195V5H71.0195ZM75.0195 46H70.0195V54H75.0195V46ZM66.0195 50V55H74.0195V50H66.0195ZM70.0195 51H45.0195V59H70.0195V51ZM49.0195 55V50H41.0195V55H49.0195ZM45.0195 46H40.0195V54H45.0195V46ZM50.0195 49H65.0195V41H50.0195V49ZM69.0195 45V10H61.0195V45H69.0195ZM65.0195 6H50.0195V14H65.0195V6ZM46.0195 10V45H54.0195V10H46.0195ZM80.0391 50H76.0391V54H80.0391V50ZM80.0391 5V0.999998H76.0391V5H80.0391ZM85.0391 5V9H89.0391V5H85.0391ZM85.0391 -1.19209e-06V-4H81.0391V-1.19209e-06H85.0391ZM110.039 -1.19209e-06H114.039V-4H110.039V-1.19209e-06ZM110.039 5H106.039V9H110.039V5ZM115.039 5H119.039V0.999998H115.039V5ZM115.039 50V54H119.039V50H115.039ZM110.039 50V46H106.039V50H110.039ZM110.039 55V59H114.039V55H110.039ZM85.0391 55H81.0391V59H85.0391V55ZM85.0391 50H89.0391V46H85.0391V50ZM90.0391 45H86.0391V49H90.0391V45ZM105.039 45V49H109.039V45H105.039ZM105.039 10H109.039V6H105.039V10ZM90.0391 10V6H86.0391V10H90.0391ZM84.0391 50V5H76.0391V50H84.0391ZM80.0391 9H85.0391V0.999998H80.0391V9ZM89.0391 5V-1.19209e-06H81.0391V5H89.0391ZM85.0391 4H110.039V-4H85.0391V4ZM106.039 -1.19209e-06V5H114.039V-1.19209e-06H106.039ZM110.039 9H115.039V0.999998H110.039V9ZM111.039 5V50H119.039V5H111.039ZM115.039 46H110.039V54H115.039V46ZM106.039 50V55H114.039V50H106.039ZM110.039 51H85.0391V59H110.039V51ZM89.0391 55V50H81.0391V55H89.0391ZM85.0391 46H80.0391V54H85.0391V46ZM90.0391 49H105.039V41H90.0391V49ZM109.039 45V10H101.039V45H109.039ZM105.039 6H90.0391V14H105.039V6ZM86.0391 10V45H94.0391V10H86.0391ZM120.059 55H116.059V59H120.059V55ZM120.059 -1.19209e-06V-4H116.059V-1.19209e-06H120.059ZM150.059 -1.19209e-06H154.059V-4H150.059V-1.19209e-06ZM150.059 5H146.059V9H150.059V5ZM155.059 5H159.059V0.999998H155.059V5ZM155.059 50V54H159.059V50H155.059ZM150.059 50V46H146.059V50H150.059ZM150.059 55V59H154.059V55H150.059ZM145.059 45V49H149.059V45H145.059ZM145.059 10H149.059V6H145.059V10ZM130.059 10V6H126.059V10H130.059ZM130.059 45H126.059V49H130.059V45ZM124.059 55V-1.19209e-06H116.059V55H124.059ZM120.059 4H150.059V-4H120.059V4ZM146.059 -1.19209e-06V5H154.059V-1.19209e-06H146.059ZM150.059 9H155.059V0.999998H150.059V9ZM151.059 5V50H159.059V5H151.059ZM155.059 46H150.059V54H155.059V46ZM146.059 50V55H154.059V50H146.059ZM150.059 51H120.059V59H150.059V51ZM149.059 45V10H141.059V45H149.059ZM145.059 6H130.059V14H145.059V6ZM126.059 10V45H134.059V10H126.059ZM130.059 49H145.059V41H130.059V49ZM0 125H-4V129H0V125ZM0 70V66H-4V70H0ZM30 70H34V66H30V70ZM30 75H26V79H30V75ZM35 75H39V71H35V75ZM35 95V99H39V95H35ZM30 95V91H26V95H30ZM30 100H26V104H30V100ZM35 100H39V96H35V100ZM35 120V124H39V120H35ZM30 120V116H26V120H30ZM30 125V129H34V125H30ZM10 115H6V119H10V115ZM25 115V119H29V115H25ZM25 100H29V96H25V100ZM10 100V96H6V100H10ZM10 90H6V94H10V90ZM25 90V94H29V90H25ZM25 80H29V76H25V80ZM10 80V76H6V80H10ZM4 125V70H-4V125H4ZM0 74H30V66H0V74ZM26 70V75H34V70H26ZM30 79H35V71H30V79ZM31 75V95H39V75H31ZM35 91H30V99H35V91ZM26 95V100H34V95H26ZM30 104H35V96H30V104ZM31 100V120H39V100H31ZM35 116H30V124H35V116ZM26 120V125H34V120H26ZM30 121H0V129H30V121ZM10 119H25V111H10V119ZM29 115V100H21V115H29ZM25 96H10V104H25V96ZM6 100V115H14V100H6ZM10 94H25V86H10V94ZM29 90V80H21V90H29ZM25 76H10V84H25V76ZM6 80V90H14V80H6ZM40.0195 85H36.0195V89H40.0195V85ZM40.0195 70V66H36.0195V70H40.0195ZM50.0195 70H54.0195V66H50.0195V70ZM50.0195 80H46.0195V84H50.0195V80ZM55.0195 80H59.0195V76H55.0195V80ZM55.0195 90H51.0195V94H55.0195V90ZM65.0195 90V94H69.0195V90H65.0195ZM65.0195 80V76H61.0195V80H65.0195ZM70.0195 80V84H74.0195V80H70.0195ZM70.0195 70V66H66.0195V70H70.0195ZM80.0195 70H84.0195V66H80.0195V70ZM80.0195 85V89H84.0195V85H80.0195ZM75.0195 85V81H71.0195V85H75.0195ZM75.0195 95V99H79.0195V95H75.0195ZM70.0195 95V91H66.0195V95H70.0195ZM70.0195 105V109H74.0195V105H70.0195ZM65.0195 105V101H61.0195V105H65.0195ZM65.0195 125V129H69.0195V125H65.0195ZM55.0195 125H51.0195V129H55.0195V125ZM55.0195 105H59.0195V101H55.0195V105ZM50.0195 105H46.0195V109H50.0195V105ZM50.0195 95H54.0195V91H50.0195V95ZM45.0195 95H41.0195V99H45.0195V95ZM45.0195 85H49.0195V81H45.0195V85ZM44.0195 85V70H36.0195V85H44.0195ZM40.0195 74H50.0195V66H40.0195V74ZM46.0195 70V80H54.0195V70H46.0195ZM50.0195 84H55.0195V76H50.0195V84ZM51.0195 80V90H59.0195V80H51.0195ZM55.0195 94H65.0195V86H55.0195V94ZM69.0195 90V80H61.0195V90H69.0195ZM65.0195 84H70.0195V76H65.0195V84ZM74.0195 80V70H66.0195V80H74.0195ZM70.0195 74H80.0195V66H70.0195V74ZM76.0195 70V85H84.0195V70H76.0195ZM80.0195 81H75.0195V89H80.0195V81ZM71.0195 85V95H79.0195V85H71.0195ZM75.0195 91H70.0195V99H75.0195V91ZM66.0195 95V105H74.0195V95H66.0195ZM70.0195 101H65.0195V109H70.0195V101ZM61.0195 105V125H69.0195V105H61.0195ZM65.0195 121H55.0195V129H65.0195V121ZM59.0195 125V105H51.0195V125H59.0195ZM55.0195 101H50.0195V109H55.0195V101ZM54.0195 105V95H46.0195V105H54.0195ZM50.0195 91H45.0195V99H50.0195V91ZM49.0195 95V85H41.0195V95H49.0195ZM45.0195 81H40.0195V89H45.0195V81ZM85.0195 125H81.0195V129H85.0195V125ZM85.0195 70V66H81.0195V70H85.0195ZM115.02 70H119.02V66H115.02V70ZM115.02 80V84H119.02V80H115.02ZM95.0195 80V76H91.0195V80H95.0195ZM95.0195 90H91.0195V94H95.0195V90ZM115.02 90H119.02V86H115.02V90ZM115.02 100V104H119.02V100H115.02ZM95.0195 100V96H91.0195V100H95.0195ZM95.0195 115H91.0195V119H95.0195V115ZM115.02 115H119.02V111H115.02V115ZM115.02 125V129H119.02V125H115.02ZM89.0195 125V70H81.0195V125H89.0195ZM85.0195 74H115.02V66H85.0195V74ZM111.02 70V80H119.02V70H111.02ZM115.02 76H95.0195V84H115.02V76ZM91.0195 80V90H99.0195V80H91.0195ZM95.0195 94H115.02V86H95.0195V94ZM111.02 90V100H119.02V90H111.02ZM115.02 96H95.0195V104H115.02V96ZM91.0195 100V115H99.0195V100H91.0195ZM95.0195 119H115.02V111H95.0195V119ZM111.02 115V125H119.02V115H111.02ZM115.02 121H85.0195V129H115.02V121Z" fill="url(#paint0_linear_108_1084)"/>
<defs>
<linearGradient id="paint0_linear_108_1084" x1="-19" y1="-10" x2="241" y2="-10" gradientUnits="userSpaceOnUse">
<stop/>
<stop offset="0.393147" stop-opacity="0.770855"/>
<stop offset="1" stop-opacity="0"/>
</linearGradient>
</defs>
</svg>
